<svg width="24" height="24" viewBox="0 0 24 24" fill="none" xmlns="http://www.w3.org/2000/svg">
<path d="M9.375 20.625C9.7113 21.7064 10.7531 22.5 12 22.5C13.2469 22.5 14.2887 21.7064 14.625 20.625H9.375Z" fill="#C2C2C2"/>
<path d="M12 4.9125C11.4825 4.9125 11.0625 4.4925 11.0625 3.975V2.4375C11.0625 1.92 11.4825 1.5 12 1.5C12.5175 1.5 12.9375 1.92 12.9375 2.4375V3.975C12.9375 4.4925 12.5175 4.9125 12 4.9125Z" fill="#C2C2C2"/>
<path d="M20.7 17.1321C19.98 16.5527 19.545 15.6873 19.365 14.7692L18.0675 8.09445C17.49 5.13712 14.955 3.00752 12 3C9.045 3.00752 6.51 5.13712 5.9325 8.09445L4.635 14.7692C4.455 15.6873 4.02 16.5527 3.3 17.1321C2.6625 17.6513 2.25 18.4415 2.25 19.3444V20.2701C2.25 20.6765 2.5725 21 2.9625 21H12H21.0375C21.435 21 21.75 20.6765 21.75 20.2701V19.3444C21.75 18.4415 21.3375 17.6513 20.7 17.1321Z" fill="#C2C2C2"/>
</svg>
