<svg width="60" height="60" viewBox="0 0 60 60" fill="none" xmlns="http://www.w3.org/2000/svg">
<path d="M3.75 16.8751L28.6249 11.5447C29.5314 11.3505 30.4686 11.3505 31.3751 11.5447L56.25 16.8751V46.5C56.25 51.8849 51.8848 56.25 46.5 56.25H13.5C8.11522 56.25 3.75 51.8849 3.75 46.5V16.8751Z" fill="#EBEBEB"/>
<path d="M5.625 20.4069V45.9375C5.625 50.5974 9.4026 54.375 14.0625 54.375C24.0624 54.375 34.0626 54.375 44.0625 54.375L54.375 43.7355V20.4069L30.8706 15.9375L5.625 20.4069Z" fill="#EBEBEB"/>
<path d="M56.25 16.4724V20.625H3.75V16.4724C3.75 12.5462 6.91762 9.35622 10.7975 9.37508H49.2024C53.0824 9.37508 56.25 12.5462 56.25 16.4724Z" fill="#8DBEFF"/>
<path d="M15 12.5543C15 13.9089 16.0457 15 17.3438 15C18.6418 15 19.6875 13.9089 19.6875 12.5543V6.19566C19.6875 4.84114 18.6418 3.75 17.3438 3.75C16.0457 3.75 15 4.84114 15 6.19566V12.5543Z" fill="#70A6F7"/>
<path d="M40.3125 12.5543C40.3125 13.9089 41.3582 15 42.6562 15C43.9543 15 45 13.9089 45 12.5543V6.19566C45 4.84114 43.9543 3.75 42.6562 3.75C41.3582 3.75 40.3125 4.84114 40.3125 6.19566V12.5543Z" fill="#70A6F7"/>
<path d="M14.8188 46L14.7914 43.0195L21.9008 36.4844C23.7602 34.707 24.7445 33.6133 24.7445 32.0547C24.7445 30.3047 23.4047 29.2109 21.6 29.2109C19.7406 29.2109 18.5375 30.3867 18.5375 32.2734H14.6273C14.6 28.3906 17.4711 25.9297 21.6547 25.9297C25.893 25.9297 28.7094 28.3359 28.7094 31.7812C28.7094 34.0234 27.6156 35.8828 23.5414 39.5742L20.5336 42.5V42.6094H28.9828V46H14.8188ZM31.2086 46L31.1812 43.0195L38.2906 36.4844C40.15 34.707 41.1344 33.6133 41.1344 32.0547C41.1344 30.3047 39.7945 29.2109 37.9898 29.2109C36.1305 29.2109 34.9273 30.3867 34.9273 32.2734H31.0172C30.9898 28.3906 33.8609 25.9297 38.0445 25.9297C42.2828 25.9297 45.0992 28.3359 45.0992 31.7812C45.0992 34.0234 44.0055 35.8828 39.9312 39.5742L36.9234 42.5V42.6094H45.3727V46H31.2086Z" fill="#70A6F7"/>
</svg>
