<svg width="18" height="18" viewBox="0 0 18 18" fill="none" xmlns="http://www.w3.org/2000/svg">
<path d="M9.28125 4.21875C12.0772 4.21875 14.3438 6.4853 14.3438 9.28125C14.3438 12.0772 12.0772 14.3438 9.28125 14.3438C6.4853 14.3438 4.21875 12.0772 4.21875 9.28125C4.21875 6.4853 6.4853 4.21875 9.28125 4.21875Z" fill="#FFF9E7" stroke="#FFC342" stroke-width="1.6875"/>
<path d="M9.28125 13.5C11.6112 13.5 13.5 11.6112 13.5 9.28125C13.5 6.95132 11.6112 5.0625 9.28125 5.0625C6.95132 5.0625 5.0625 6.95132 5.0625 9.28125C5.0625 11.6112 6.95132 13.5 9.28125 13.5Z" fill="#FFF9E7"/>
<path d="M2.40364 5.19073C1.98985 3.90586 2.42542 2.44396 3.547 1.6502C4.66858 0.85644 6.12771 0.987789 7.10229 1.87292C7.40723 2.15273 7.37454 2.66096 7.04239 2.89509L3.32922 5.51621C2.99166 5.75033 2.53431 5.59046 2.40364 5.19073Z" fill="#FFDD78"/>
<path d="M16.1589 5.19073C16.5727 3.90586 16.1371 2.44396 15.0155 1.6502C13.8939 0.85644 12.4348 0.987789 11.4602 1.87292C11.1553 2.15273 11.188 2.66096 11.5201 2.89509L15.2333 5.51621C15.5709 5.75032 16.0282 5.59046 16.1589 5.19073Z" fill="#FFDD78"/>
<path d="M8.53201 9.25053C8.70436 8.99206 9.05361 8.9222 9.31208 9.09455L10.9996 10.2195C11.258 10.3918 11.3279 10.7411 11.1556 10.9996C10.9833 11.258 10.634 11.3279 10.3755 11.1556L8.68804 10.0306C8.42957 9.85825 8.35971 9.509 8.53201 9.25053Z" fill="#FFDD78"/>
<path d="M9 6.1875C9.31067 6.1875 9.5625 6.43933 9.5625 6.75V9.5625C9.5625 9.87317 9.31067 10.125 9 10.125C8.68933 10.125 8.4375 9.87317 8.4375 9.5625V6.75C8.4375 6.43933 8.68933 6.1875 9 6.1875Z" fill="#FFC342"/>
</svg>
