<svg width="18" height="18" viewBox="0 0 18 18" fill="none" xmlns="http://www.w3.org/2000/svg">
<path d="M14.625 10.8787C14.625 14.3096 11.7839 17.0691 8.35318 16.8643C4.82706 16.6538 2.41267 13.2627 2.86748 9.71803C3.1426 7.56163 4.15328 5.71247 5.25379 4.27866C5.4447 4.02831 5.6412 6.04249 5.83774 5.82058C6.03427 5.59298 7.85908 2.43519 8.49358 1.32569C8.61148 1.12086 8.88097 1.05828 9.07189 1.20621C10.3465 2.16777 14.625 5.78076 14.625 10.8787Z" fill="#F55A00"/>
<path d="M12 11.6137C12 13.5283 10.4165 15.0673 8.4905 14.9977C6.41168 14.9236 4.98564 12.921 5.29122 10.8581C5.73106 7.90061 8.61551 6 8.61551 6C8.61551 6 12 8.22973 12 11.6137Z" fill="#F68E52"/>
</svg>
