<svg width="24" height="24" viewBox="0 0 24 24" fill="none" xmlns="http://www.w3.org/2000/svg">
<path d="M9.6354 2.87543C9.7002 2.09799 10.3501 1.5 11.1302 1.5H12.8698C13.6499 1.5 14.2998 2.09799 14.3646 2.87543L14.5412 4.99402C14.5665 5.2978 14.9244 5.44605 15.1571 5.24915L16.7801 3.87592C17.3756 3.37199 18.2579 3.4087 18.8096 3.96034L20.0397 5.19042C20.5913 5.74206 20.628 6.62445 20.1241 7.22L18.7509 8.84287C18.5539 9.0756 18.7022 9.4335 19.006 9.45885L21.1246 9.6354C21.902 9.7002 22.5 10.3501 22.5 11.1302V12.8698C22.5 13.6499 21.902 14.2998 21.1246 14.3646L19.006 14.5412C18.7022 14.5665 18.5539 14.9244 18.7509 15.1571L20.1241 16.78C20.628 17.3756 20.5913 18.2579 20.0397 18.8095L18.8096 20.0397C18.2579 20.5913 17.3756 20.628 16.7801 20.1241L15.1571 18.7508C14.9244 18.554 14.5665 18.7022 14.5412 19.006L14.3646 21.1246C14.2998 21.902 13.6499 22.5 12.8698 22.5H11.1302C10.3501 22.5 9.7002 21.902 9.6354 21.1246L9.45885 19.006C9.4335 18.7022 9.0756 18.5539 8.84287 18.7509L7.22 20.1241C6.62445 20.628 5.74206 20.5913 5.19042 20.0397L3.96034 18.8096C3.4087 18.2579 3.372 17.3756 3.87592 16.7801L5.24916 15.1571C5.44606 14.9244 5.2978 14.5665 4.99403 14.5412L2.87543 14.3646C2.09799 14.2998 1.5 13.6499 1.5 12.8698V11.1302C1.5 10.3501 2.09799 9.7002 2.87543 9.6354L4.99403 9.45885C5.2978 9.4335 5.44605 9.0756 5.24916 8.84287L3.87592 7.21998C3.372 6.62444 3.4087 5.74204 3.96034 5.1904L5.19042 3.96032C5.74206 3.40868 6.62445 3.37198 7.22 3.8759L8.84287 5.24913C9.0756 5.44603 9.4335 5.29777 9.45885 4.994L9.6354 2.87543ZM15.75 12C15.75 9.92895 14.071 8.25 12 8.25C9.92895 8.25 8.25 9.92895 8.25 12C8.25 14.071 9.92895 15.75 12 15.75C14.071 15.75 15.75 14.071 15.75 12Z" fill="#C2C2C2"/>
</svg>
