<svg width="60" height="60" viewBox="0 0 60 60" fill="none" xmlns="http://www.w3.org/2000/svg">
<path d="M46.6652 56.25H13.3348C11.1391 56.25 9.375 54.5072 9.375 52.338V28.125L29.7696 22.3873L50.625 28.125V52.338C50.625 54.4886 48.861 56.25 46.6652 56.25Z" fill="#EB5D41"/>
<path d="M50.625 10.9635C50.625 4.6179 43.0401 1.38875 38.5003 5.7819L30 14.0237L21.4997 5.7819C16.96 1.36998 9.375 4.6179 9.375 10.9635C9.375 13.1977 11.1685 15 13.3917 15L30 19.068L46.6084 15C48.8316 14.9812 50.625 13.1789 50.625 10.9635Z" fill="#FFDD78"/>
<path d="M51.8653 15H8.13459C6.74869 15 5.625 16.1266 5.625 17.5161V25.6089C5.625 26.9983 6.74869 28.125 8.13459 28.125H51.8653C53.2513 28.125 54.375 26.9983 54.375 25.6089V17.5161C54.375 16.1266 53.2513 15 51.8653 15Z" fill="#EB5D41"/>
<path d="M30.0092 5.625C26.8956 5.625 24.375 8.1921 24.375 11.3632V56.25H35.6248V11.3632C35.6434 8.1921 33.1228 5.625 30.0092 5.625Z" fill="#FFDD78"/>
</svg>
