<svg width="187" height="20" version="1.1" xmlns="http://www.w3.org/2000/svg" desc="Created with imagetracer.js version 1.2.6" ><path fill="rgb(15,9,6)" stroke="rgb(15,9,6)" stroke-width="1" opacity="0.0196078431372549" d="M 0 0 L 5 0.5 L 0.5 6 L 0 0 Z " /><path fill="rgb(15,9,6)" stroke="rgb(15,9,6)" stroke-width="1" opacity="0.0196078431372549" d="M 181.5 0 L 187 0 L 187 7.5 L 186 7.5 L 183.5 2 L 181.5 0 Z " /><path fill="rgb(15,9,6)" stroke="rgb(15,9,6)" stroke-width="1" opacity="0.0196078431372549" d="M 186.5 12 L 187 20 L 181 19.5 L 185 16.5 L 186.5 12 Z " /><path fill="rgb(15,9,6)" stroke="rgb(15,9,6)" stroke-width="1" opacity="0.0196078431372549" d="M 0.5 15 L 6 19.5 L 0 20 L 0.5 15 Z " /><path fill="rgb(246,165,90)" stroke="rgb(246,165,90)" stroke-width="1" opacity="0.996078431372549" d="M 49 0 L 65.5 0 L 66 1.5 L 67 4.5 L 65.5 7 Q 67.8 6.3 67 8.5 L 67 10.5 L 66.5 13 L 65 12.5 L 67 19.5 L 48.5 20 L 47.5 18 L 49 18.5 L 48 16.5 L 49 13.5 L 48 11.5 L 48 9.5 L 47 6.5 L 49 5.5 L 48 3.5 L 49 0 Z " /><path fill="rgb(249,178,86)" stroke="rgb(249,178,86)" stroke-width="1" opacity="0.996078431372549" d="M 89.5 0 L 103.5 0 L 104 2.5 L 105 5.5 L 104.5 7 L 103 6.5 L 104 8.5 L 103 9.5 L 104.5 12 L 103 12.5 L 105 13.5 L 103 14.5 L 106 15.5 L 103 17.5 L 104 19.5 L 101.5 20 L 93.5 20 L 92.5 19 L 89.5 20 L 88 17.5 L 90.5 14 L 92 13.5 L 89.5 12 L 88.5 14 L 88 12.5 L 89 9.5 L 88.5 6 L 90 6.5 Q 90.8 4.3 88.5 5 Q 85.8 3.7 88 2.5 L 89.5 0 Z M 90 1 L 90 2 L 92 2 L 90 1 Z M 103 1 L 102 4 L 104 4 L 103 1 Z " /><path fill="rgb(253,203,78)" stroke="rgb(253,203,78)" stroke-width="1" opacity="0.996078431372549" d="M 158 0 L 177.5 0 L 184 3.5 Q 186.8 6.2 186 12.5 L 182.5 18 L 178.5 20 L 158.5 20 L 157 18.5 L 159 14.5 Q 160.1 11.2 157.5 12 L 158.5 10 L 160 9.5 L 158 9 L 159 4.5 L 157.5 5 L 156 4.5 Q 158.8 3.4 158 0 Z " /><path fill="rgb(243,150,95)" stroke="rgb(243,150,95)" stroke-width="1" opacity="0.984313725490196" d="M 7.5 0 L 23.5 0 L 25 1.5 L 23 2 L 22 5.5 L 25 6 Q 26.1 8.7 23.5 8 L 22 7.5 L 24 10.5 L 25 13 L 23 13.5 Q 25.8 14.6 25 18 Q 21.9 17.3 22.5 20 L 7.5 20 L 1 14.5 L 0 7.5 L 5.5 1 L 7.5 0 Z " /><path fill="rgb(247,170,89)" stroke="rgb(247,170,89)" stroke-width="1" opacity="0.996078431372549" d="M 70.5 0 L 71.5 3 L 73 2.5 L 72 4.5 L 72.5 6 Q 68 5.5 67.5 9 L 67 7 L 65 6.5 L 67 5.5 Q 66.3 7.8 68.5 7 L 71 3.5 L 70.5 0 Z " /><path fill="rgb(247,170,89)" stroke="rgb(247,170,89)" stroke-width="1" opacity="0.996078431372549" d="M 70.5 8 L 76 9.5 L 74.5 12 L 73.5 10 L 72.5 12 L 72 9 L 70.5 8 Z " /><path fill="rgb(247,170,89)" stroke="rgb(247,170,89)" stroke-width="1" opacity="0.996078431372549" d="M 68.5 10 L 71 11.5 L 70.5 16 L 69 12.5 L 69.5 11 L 68.5 10 Z " /><path fill="rgb(247,170,89)" stroke="rgb(247,170,89)" stroke-width="1" opacity="0.996078431372549" d="M 76.5 11 Q 79.5 12.5 76.5 14 L 73.5 16 L 74 14.5 Q 73.2 11.9 76.5 13 L 76.5 11 Z " /><path fill="rgb(247,170,89)" stroke="rgb(247,170,89)" stroke-width="1" opacity="0.996078431372549" d="M 75.5 16 L 74.5 18 L 75.5 16 Z " /><path fill="rgb(247,170,89)" stroke="rgb(247,170,89)" stroke-width="1" opacity="0.996078431372549" d="M 66.5 17 L 69 17 Q 67.9 19.7 70.5 19 L 70.5 20 Q 65.8 19.2 66.5 17 Z " /><path fill="rgb(251,187,83)" stroke="rgb(251,187,83)" stroke-width="1" opacity="0.996078431372549" d="M 115.5 0 L 118 1.5 L 118.5 0 L 127.5 0 L 130 3.5 L 128.5 6 L 130 6.5 L 130 8.5 L 131 10.5 L 128 15.5 L 130 16 L 131 18.5 L 129.5 20 L 118 20 L 117.5 17 L 115 18 L 116 15.5 L 115.5 14 Q 117.8 13.3 117 15.5 L 119 14.5 L 118 12.5 L 119 9.5 L 116 6.5 L 117 5.5 L 115.5 0 Z M 119 3 L 118 6 L 119 6 L 119 3 Z " /><path fill="rgb(251,187,83)" stroke="rgb(251,187,83)" stroke-width="1" opacity="0.996078431372549" d="M 115.5 9 L 118 10.5 L 116.5 10 L 115.5 9 Z " /><path fill="rgb(252,195,80)" stroke="rgb(252,195,80)" stroke-width="1" opacity="0.996078431372549" d="M 141 0 L 157.5 0 L 158 2.5 L 156.5 5 L 158.5 4 L 159 6.5 L 158 9 L 160 9.5 L 157 11.5 L 159 12 L 158 15.5 L 159 18.5 L 157.5 20 L 142.5 20 L 142 18.5 L 142 16.5 Q 142.8 14.3 140.5 15 L 139.5 13 Q 140.8 15.3 142 12.5 L 139 10.5 L 140.5 11 Q 143.1 11.7 142 9 L 139 7.5 L 140.5 8 L 142 7.5 L 141 5.5 L 141.5 4 L 140 3.5 L 142 2.5 L 141 0 Z " /><path fill="rgb(252,195,80)" stroke="rgb(252,195,80)" stroke-width="1" opacity="0.996078431372549" d="M 138.5 19 L 141 19.5 L 138.5 20 L 138.5 19 Z " /><path fill="rgb(245,158,92)" stroke="rgb(245,158,92)" stroke-width="1" opacity="0.996078431372549" d="M 29.5 0 Q 34 2 30.5 4 L 29 2.5 L 29.5 0 Z " /><path fill="rgb(245,158,92)" stroke="rgb(245,158,92)" stroke-width="1" opacity="0.996078431372549" d="M 34.5 0 L 35.5 2 L 33 1.5 L 34.5 0 Z " /><path fill="rgb(245,158,92)" stroke="rgb(245,158,92)" stroke-width="1" opacity="0.996078431372549" d="M 42.5 0 L 49 0 L 49 2.5 L 49.5 4 L 48 3.5 L 49 5.5 L 47 6.5 L 49 10.5 L 48 12.5 L 49 15.5 L 49 17.5 L 47.5 20 Q 41.5 21.5 40 18.5 L 43 14.5 L 41.5 14 L 40 14.5 L 38 11.5 L 39 9.5 Q 36.8 8.3 39.5 7 L 41 7.5 L 40 9.5 L 43 7.5 L 42 3 L 40 2.5 L 43 1.5 L 42.5 0 Z M 42 11 L 41 13 L 44 13 L 42 11 Z M 43 16 L 42 19 L 43 19 L 43 16 Z " /><path fill="rgb(245,158,92)" stroke="rgb(245,158,92)" stroke-width="1" opacity="0.996078431372549" d="M 24.5 2 L 26.5 3 L 28 2.5 Q 26.8 5.2 25.5 3 L 24.5 2 Z " /><path fill="rgb(245,158,92)" stroke="rgb(245,158,92)" stroke-width="1" opacity="0.996078431372549" d="M 34.5 4 L 38 6.5 L 36.5 7 L 34.5 4 Z " /><path fill="rgb(245,158,92)" stroke="rgb(245,158,92)" stroke-width="1" opacity="0.996078431372549" d="M 31.5 6 L 34 6.5 L 31.5 7 L 31.5 6 Z " /><path fill="rgb(245,158,92)" stroke="rgb(245,158,92)" stroke-width="1" opacity="0.996078431372549" d="M 27.5 7 L 30 7.5 Q 31 11.3 28 10 L 27.5 8 L 24.5 10 L 25.5 8 L 27.5 7 Z " /><path fill="rgb(245,158,92)" stroke="rgb(245,158,92)" stroke-width="1" opacity="0.996078431372549" d="M 31.5 8 Q 34.1 7.2 33 10.5 L 32 10.5 L 31.5 8 Z " /><path fill="rgb(245,158,92)" stroke="rgb(245,158,92)" stroke-width="1" opacity="0.996078431372549" d="M 34.5 8 L 36 10.5 L 34 9.5 L 34.5 8 Z " /><path fill="rgb(245,158,92)" stroke="rgb(245,158,92)" stroke-width="1" opacity="0.996078431372549" d="M 29.5 11 L 31 11.5 L 27.5 14 L 29.5 11 Z " /><path fill="rgb(245,158,92)" stroke="rgb(245,158,92)" stroke-width="1" opacity="0.996078431372549" d="M 33.5 12 Q 37.3 11 36 14 L 33.5 12 Z " /><path fill="rgb(245,158,92)" stroke="rgb(245,158,92)" stroke-width="1" opacity="0.996078431372549" d="M 23.5 13 L 26 14 L 25.5 16 L 23.5 13 Z " /><path fill="rgb(245,158,92)" stroke="rgb(245,158,92)" stroke-width="1" opacity="0.996078431372549" d="M 27.5 15 L 28.5 17 Q 25.7 17.7 27.5 15 Z " /><path fill="rgb(245,158,92)" stroke="rgb(245,158,92)" stroke-width="1" opacity="0.996078431372549" d="M 30.5 16 L 33 16.5 L 33 18.5 L 32.5 20 L 30 18.5 L 29.5 20 L 29 18.5 L 30.5 16 Z " /><path fill="rgb(245,158,92)" stroke="rgb(245,158,92)" stroke-width="1" opacity="0.996078431372549" d="M 24.5 18 L 28 19.5 L 26.5 20 L 24.5 19 L 23 19.5 L 24.5 18 Z " /><path fill="rgb(248,174,87)" stroke="rgb(248,174,87)" stroke-width="1" opacity="0.996078431372549" d="M 79.5 0 Q 87.8 -1.4 92 1.5 L 89.5 2 L 88 1.5 L 89 3.5 L 88.5 5 Q 90.8 4.3 90 6.5 Q 86.5 8 89 9.5 L 90.5 13 L 92 13.5 L 89 15.5 L 88 18.5 L 88.5 20 L 79 19.5 L 80 14.5 L 78.5 13 L 77 13.5 L 78 11.5 L 78 9.5 L 79 7.5 L 77 6.5 L 78.5 6 L 80 6.5 L 79.5 4 L 78 4.5 L 80 1.5 L 77 2.5 L 79.5 0 Z " /><path fill="rgb(250,183,85)" stroke="rgb(250,183,85)" stroke-width="1" opacity="0.996078431372549" d="M 114.5 0 L 113.5 2 L 114.5 0 Z " /><path fill="rgb(250,183,85)" stroke="rgb(250,183,85)" stroke-width="1" opacity="0.996078431372549" d="M 102.5 1 L 103 3.5 L 102 3.5 L 102.5 1 Z " /><path fill="rgb(250,183,85)" stroke="rgb(250,183,85)" stroke-width="1" opacity="0.996078431372549" d="M 108 2 L 110 2.5 L 108 3.5 L 108 2 Z " /><path fill="rgb(250,183,85)" stroke="rgb(250,183,85)" stroke-width="1" opacity="0.996078431372549" d="M 113.5 4 L 115 4.5 L 112 6.5 L 114 7.5 L 112 8.5 L 111.5 7 L 110.5 9 L 108.5 8 L 106 9 L 107 14.5 L 106 14.5 Q 106.8 11.9 103.5 13 L 103.5 12 L 106 11.5 L 104 10.5 L 106.5 6 L 109.5 7 L 113.5 4 Z " /><path fill="rgb(250,183,85)" stroke="rgb(250,183,85)" stroke-width="1" opacity="0.996078431372549" d="M 102.5 5 L 103.5 7 L 101.5 7 L 100 6.5 L 102.5 5 Z " /><path fill="rgb(250,183,85)" stroke="rgb(250,183,85)" stroke-width="1" opacity="0.996078431372549" d="M 109.5 10 L 112.5 11 L 114 10.5 L 113.5 12 L 115 12.5 L 113 13.5 Q 113.8 10.9 110.5 12 L 108 11.5 L 109.5 10 Z " /><path fill="rgb(250,183,85)" stroke="rgb(250,183,85)" stroke-width="1" opacity="0.996078431372549" d="M 108.5 14 L 110 16.5 L 107 16.5 L 108.5 14 Z " /><path fill="rgb(250,183,85)" stroke="rgb(250,183,85)" stroke-width="1" opacity="0.996078431372549" d="M 110.5 14 L 112 16.5 L 111 16.5 L 110.5 14 Z " /><path fill="rgb(250,183,85)" stroke="rgb(250,183,85)" stroke-width="1" opacity="0.996078431372549" d="M 103.5 17 Q 105.8 16.3 105 18.5 L 103.5 17 Z " /><path fill="rgb(254,207,76)" stroke="rgb(254,207,76)" stroke-width="1" opacity="0.49411764705882355" d="M 5.5 0 L 7 0.5 L 1.5 5 L 5.5 0 Z " /><path fill="rgb(254,207,76)" stroke="rgb(254,207,76)" stroke-width="1" opacity="0.49411764705882355" d="M 178.5 0 L 182 1.5 L 180.5 1 Q 177.5 1.5 178.5 0 Z " /><path fill="rgb(254,207,76)" stroke="rgb(254,207,76)" stroke-width="1" opacity="0.49411764705882355" d="M 183.5 2 L 186 6.5 L 185 6.5 L 183.5 2 Z " /><path fill="rgb(254,207,76)" stroke="rgb(254,207,76)" stroke-width="1" opacity="0.49411764705882355" d="M 186.5 8 L 187 11.5 L 186 11.5 L 186.5 8 Z " /><path fill="rgb(254,207,76)" stroke="rgb(254,207,76)" stroke-width="1" opacity="0.49411764705882355" d="M 0.5 13 L 5 18.5 L 0 14.5 L 0.5 13 Z " /><path fill="rgb(254,207,76)" stroke="rgb(254,207,76)" stroke-width="1" opacity="0.49411764705882355" d="M 185.5 13 L 186 14.5 L 183.5 18 L 184 16.5 L 185.5 13 Z " /><path fill="rgb(254,207,76)" stroke="rgb(254,207,76)" stroke-width="1" opacity="0.49411764705882355" d="M 181.5 18 L 180.5 20 L 179 19.5 L 181.5 18 Z " /><path fill="rgb(245,158,93)" stroke="rgb(245,158,93)" stroke-width="1" opacity="1" d="M 24.5 0 L 27.5 1 L 30.5 0 L 34.5 1 L 38.5 0 L 40.5 0 L 43 1.5 L 40 2.5 L 42 3 L 43 7.5 L 42.5 10 L 40 9.5 L 41 7.5 L 39.5 7 Q 36.8 8.3 39 9.5 L 40.5 12 L 42.5 11 L 43.5 13 Q 39.1 11.5 40 14.5 L 41.5 14 L 44 15.5 L 42.5 19 L 41.5 16 L 40 18.5 L 40.5 20 L 33.5 20 L 33 18.5 L 30 16.5 L 32 19.5 L 30 20 L 29.5 18 L 28.5 20 L 26.5 19 L 25 19.5 L 25 17.5 L 26 14 L 24 13.5 L 26 12.5 Q 22.9 10.8 24.5 9 L 22 7.5 L 23.5 8 Q 26.1 8.7 25 6 L 22 5.5 L 23.5 2 L 25.5 3 L 24.5 0 Z M 32 6 L 32 7 L 34 7 L 32 6 Z M 30 7 L 28 9 Q 27 11 30 10 L 30 7 Z M 32 8 L 32 11 L 33 11 Q 34 7 32 8 Z M 39 11 Q 37 14 40 13 L 39 11 Z M 34 12 L 36 14 Q 37 11 34 12 Z M 28 15 Q 26 18 29 17 L 28 15 Z " /><path fill="rgb(245,158,93)" stroke="rgb(245,158,93)" stroke-width="1" opacity="1" d="M 45.5 16 L 44.5 18 L 45.5 16 Z " /><path fill="rgb(247,170,89)" stroke="rgb(247,170,89)" stroke-width="1" opacity="1" d="M 67.5 0 Q 71.3 -1.3 70 2.5 L 71 2.5 L 71.5 0 L 73.5 1 L 78.5 0 L 80 2.5 L 80 4.5 L 78 9.5 Q 80.7 11.3 76.5 13 Q 73.2 11.9 74 14.5 L 75.5 14 L 78.5 13 L 80 14.5 L 80 18.5 L 78.5 20 L 78 18 Q 75 17 76 20 L 73.5 20 L 70.5 19 L 67.5 20 L 66.5 18 L 68.5 19 L 69 17 L 65 15.5 L 65.5 12 L 67.5 13 L 67 11.5 L 66 9.5 L 69 7.5 L 67 7 L 66 3.5 L 67.5 0 Z M 77 1 L 77 3 L 79 2 L 77 1 Z M 73 2 L 70 6 L 73 6 L 73 4 L 73 2 Z M 71 8 L 72 9 L 73 12 L 74 10 L 75 12 L 76 10 L 71 8 Z M 71 11 L 69 13 L 70 16 L 71 16 L 71 11 Z " /><path fill="rgb(250,183,85)" stroke="rgb(250,183,85)" stroke-width="1" opacity="1" d="M 104.5 0 L 108.5 0 L 115.5 1 L 118 0 L 117.5 2 L 116 1.5 L 117 5.5 L 116 6.5 L 119 9.5 L 118 13.5 L 120 13.5 L 117 16.5 L 118 17.5 L 118 20 L 112.5 20 L 110.5 20 L 104 19.5 L 105 16.5 L 103.5 14 L 105.5 13 L 106.5 15 L 107 11.5 L 105 11.5 L 106 9 L 109.5 8 L 111 8.5 Q 111.8 6.3 109.5 7 L 106 6.5 L 105 10 L 103 9.5 L 103.5 7 Q 105.8 7.8 105 5.5 Q 101.5 4 104 2.5 L 104.5 0 Z M 108 2 L 108 4 L 110 3 L 108 2 Z M 114 4 L 113 6 L 115 5 L 114 4 Z M 112 7 L 112 9 L 114 8 L 112 7 Z M 110 10 L 111 12 L 113 12 L 110 10 Z M 113 12 L 113 14 L 115 13 L 113 12 Z M 116 14 L 117 16 Q 118 13 116 14 Z M 116 16 Q 114 19 117 18 L 116 16 Z " /><path fill="rgb(250,183,85)" stroke="rgb(250,183,85)" stroke-width="1" opacity="1" d="M 118.5 3 L 119 5.5 L 118 5.5 L 118.5 3 Z " /><path fill="rgb(251,191,82)" stroke="rgb(251,191,82)" stroke-width="1" opacity="0.996078431372549" d="M 128.5 0 L 140.5 0 L 141 1.5 L 141.5 3 L 140 3.5 L 142 4.5 L 141 6.5 L 141.5 8 L 140 8.5 L 142 9 Q 143.1 11.7 140.5 11 L 140.5 12 L 142 12.5 L 140.5 15 Q 142.8 14.3 142 16.5 L 142 18.5 L 141.5 20 L 138.5 19 Q 136.8 21.8 130.5 20 L 130 17.5 Q 130.8 15.3 128.5 16 L 129 14.5 L 131 10.5 L 129 7.5 L 129.5 6 L 128 5.5 L 130 2.5 L 128.5 0 Z " /></svg>