<svg width="18" height="18" viewBox="0 0 18 18" fill="none" xmlns="http://www.w3.org/2000/svg">
<path d="M10.4062 6.41811L8.31934 4.33121L8.56121 4.08933C9.41059 3.23996 10.8562 3.58308 11.2331 4.71933L12.195 7.25061L10.4062 6.41811Z" fill="#8DBEFF"/>
<path d="M14.9069 12.9374L11.9652 6.60376C11.8189 6.26063 11.8695 6.21001 11.6052 5.94563L11.3127 5.65313C11.082 5.42251 10.7052 5.42251 10.4745 5.65313C10.2439 5.88376 9.86703 5.88376 9.63641 5.65313L7.14453 3.15562C6.91391 2.925 6.91391 2.54812 7.14453 2.3175C7.37516 2.08687 7.37516 1.71001 7.14453 1.47938L7.13328 1.46813C6.67203 1.00688 5.91828 1.00688 5.45703 1.46813L1.32266 5.60813C1.06953 5.86126 1.06953 6.27188 1.32266 6.52501L13.0339 16.2225C13.287 16.4756 15.6608 16.7063 15.9139 16.4531L16.3752 16.1381C18.1133 14.6081 15.4694 13.7812 14.9069 12.9374Z" fill="#C9E2FF"/>
<path fill-rule="evenodd" clip-rule="evenodd" d="M10.5416 7.93131C10.4347 7.82444 10.3672 7.67819 10.3672 7.51506C10.3672 7.18881 10.6316 6.92444 10.9578 6.92444H12.3303C12.6566 6.92444 12.9209 7.18881 12.9209 7.51506C12.9209 7.84131 12.6566 8.10569 12.3303 8.10569H10.9578C10.8003 8.10569 10.6484 8.03819 10.5416 7.93131ZM11.4359 9.81006C11.329 9.70319 11.2615 9.55694 11.2615 9.39381C11.2615 9.06756 11.5259 8.80319 11.8521 8.80319H13.2246C13.5509 8.80319 13.8153 9.06756 13.8153 9.39381C13.8153 9.72006 13.5509 9.98444 13.2246 9.98444H11.8521C11.6946 9.98444 11.5428 9.91694 11.4359 9.81006ZM12.004 11.3794C12.004 11.5426 12.0715 11.6888 12.1784 11.7957C12.2853 11.9026 12.4315 11.9644 12.5946 11.9701H13.9671C14.2934 11.9701 14.5578 11.7057 14.5578 11.3794C14.5578 11.0532 14.2934 10.7888 13.9671 10.7888H12.5946C12.2684 10.7888 12.004 11.0532 12.004 11.3794Z" fill="#8DBEFF"/>
<path d="M4.12953 2.79565L6.94766 5.67005C7.61141 6.35067 7.98266 7.26192 7.98266 8.21817L7.97703 9.8663L2.36328 4.5394L4.12953 2.79565Z" fill="#8DBEFF"/>
<path d="M14.7376 16.7625C14.7376 16.7625 12.4876 16.5375 9.7145 14.6643C7.27888 13.0275 1.32199 6.52497 1.32199 6.52497C1.06324 6.26622 1.06324 5.84434 1.32199 5.58561L2.95887 3.94873C2.95887 3.94873 8.0495 8.76372 8.84263 11.2331C10.2714 15.7106 16.4476 16.1212 16.4476 16.1212L16.0539 16.515C15.7951 16.7737 15.4408 16.875 14.7376 16.7625Z" fill="#70A6F7"/>
</svg>
