<svg width="16" height="16" viewBox="0 0 16 16" fill="none" xmlns="http://www.w3.org/2000/svg">
<path d="M13.09 9.805C14.1172 9.805 14.95 8.97225 14.95 7.945C14.95 6.91775 14.1172 6.085 13.09 6.085C12.0627 6.085 11.23 6.91775 11.23 7.945C11.23 8.97225 12.0627 9.805 13.09 9.805Z" fill="#FF9C00"/>
<path d="M5.49995 5.5L5.83995 4.99999C6.46495 4.99999 7.08495 4.85499 7.64495 4.58499L10.775 3.04499V12.855L7.64495 11.315C7.08495 11.04 6.46495 10.895 5.83995 10.895L5.49995 10V5.5ZM3.10793 14.5042H4.39494C4.72994 14.5042 4.99994 14.2342 4.99994 13.8992V9.945H2.50293V13.8992C2.50293 14.2342 2.77293 14.5042 3.10793 14.5042Z" fill="#FFC33A"/>
<path d="M12.035 1.5C11.19 1.5 10.5 2.185 10.5 3.035V12.86C10.5 13.705 11.185 14.395 12.035 14.395C12.88 14.395 13.57 13.71 13.57 12.86V3.035C13.565 2.185 12.88 1.5 12.035 1.5Z" fill="#FFC33A"/>
<path d="M1.86331 5H6V10.89H1.86331C1.3854 10.89 1 10.515 1 10.055V5.84C1 5.375 1.3854 5 1.86331 5Z" fill="#FFA300"/>
</svg>
