<svg width="16" height="16" viewBox="0 0 16 16" fill="none" xmlns="http://www.w3.org/2000/svg">
<path d="M13.6786 10.9255C13.29 10.179 12.6671 9.76094 11.9995 9.56184L8.22767 8.52169C7.79917 8.40224 7.40552 8.79539 7.52012 9.22839L8.54657 12.9462C8.67112 13.3991 8.89532 13.8271 9.25407 14.1854C10.4549 15.3848 12.4778 15.2604 13.5092 13.8072C14.1021 12.971 14.1569 11.8363 13.6786 10.9255Z" fill="#90DEFF"/>
<path d="M9.99351 1.41181C10.7376 1.01824 11.6335 0.857894 12.6104 1.14943C13.805 1.50898 14.7364 2.49048 14.9489 3.67605C15.3134 5.7265 13.6785 7.5 11.6133 7.5C11.0008 7.5 10.4339 7.32995 9.93786 7.05785L5.85306 4.83247C5.38231 4.57494 5.38231 3.92385 5.85306 3.66633L9.99351 1.41181Z" fill="#90DEFF"/>
<path d="M5.88415 11.7428C6.1093 11.0247 5.98695 10.3603 5.6835 9.8132L3.94617 6.7601C3.75041 6.4133 3.24633 6.4133 3.05057 6.7601L1.33769 9.76925C1.12725 10.1356 1 10.5557 1 11.0051C1 12.5292 2.36542 13.7309 3.94127 13.4622C4.85155 13.3108 5.6101 12.6221 5.88415 11.7428Z" fill="#90DEFF"/>
</svg>
