<svg version="1.1" id="Layer_1" xmlns="http://www.w3.org/2000/svg" xmlns:xlink="http://www.w3.org/1999/xlink" x="0px" y="0px"
	 width="100%" viewBox="0 0 390 844" enable-background="new 0 0 390 844" xml:space="preserve">
<path fill="#FB8800" opacity="1.000000" stroke="none" 
	d="
M351.000000,845.000000 
	C234.000046,845.000000 117.500099,845.000000 1.000109,845.000000 
	C1.000073,563.666809 1.000073,282.333679 1.000036,1.000374 
	C130.999771,1.000249 260.999542,1.000249 390.999512,1.000124 
	C390.999664,282.332977 390.999664,563.665955 390.999817,844.999512 
	C377.833344,845.000000 364.666656,845.000000 351.000000,845.000000 
M209.227112,396.743256 
	C210.908066,392.390381 212.589035,388.037476 214.517242,383.044373 
	C199.626266,383.044373 185.981140,382.767242 172.353958,383.142212 
	C163.334793,383.390381 156.474411,391.047058 156.014175,400.251831 
	C155.324509,414.044220 155.720001,414.555847 168.883453,417.017151 
	C169.513245,417.134888 170.121567,417.367584 171.159058,417.668182 
	C170.382965,425.664917 169.566513,433.574677 168.864136,441.494537 
	C168.408127,446.636383 170.394608,450.706726 175.029526,453.045441 
	C179.019806,455.058838 183.155640,454.846527 186.820160,452.118378 
	C190.957458,449.038269 192.299637,444.877136 191.278900,439.780792 
	C189.681259,431.804138 188.278076,423.788513 186.753433,415.578979 
	C188.923737,414.652557 190.864990,413.823883 193.196503,412.828644 
	C198.104721,420.303284 202.997086,427.584045 207.703796,434.982910 
	C210.700699,439.694031 214.723175,442.014313 220.298477,441.022949 
	C224.797256,440.223083 227.790237,437.465698 229.009140,433.084412 
	C230.525177,427.634888 228.505524,423.448669 224.200729,419.943390 
	C217.660797,414.618164 211.310471,409.060089 204.779663,403.516022 
	C205.690338,402.229431 206.372330,401.296967 207.020523,400.341522 
	C207.674393,399.377716 208.294739,398.391144 209.227112,396.743256 
z"/>
<path fill="#FFF2DE" opacity="1.000000" stroke="none" 
	d="
M209.078461,397.078918 
	C208.294739,398.391144 207.674393,399.377716 207.020523,400.341522 
	C206.372330,401.296967 205.690338,402.229431 204.779663,403.516022 
	C211.310471,409.060089 217.660797,414.618164 224.200729,419.943390 
	C228.505524,423.448669 230.525177,427.634888 229.009140,433.084412 
	C227.790237,437.465698 224.797256,440.223083 220.298477,441.022949 
	C214.723175,442.014313 210.700699,439.694031 207.703796,434.982910 
	C202.997086,427.584045 198.104721,420.303284 193.196503,412.828644 
	C190.864990,413.823883 188.923737,414.652557 186.753433,415.578979 
	C188.278076,423.788513 189.681259,431.804138 191.278900,439.780792 
	C192.299637,444.877136 190.957458,449.038269 186.820160,452.118378 
	C183.155640,454.846527 179.019806,455.058838 175.029526,453.045441 
	C170.394608,450.706726 168.408127,446.636383 168.864136,441.494537 
	C169.566513,433.574677 170.382965,425.664917 171.159058,417.668182 
	C170.121567,417.367584 169.513245,417.134888 168.883453,417.017151 
	C155.720001,414.555847 155.324509,414.044220 156.014175,400.251831 
	C156.474411,391.047058 163.334793,383.390381 172.353958,383.142212 
	C185.981140,382.767242 199.626266,383.044373 214.517242,383.044373 
	C212.589035,388.037476 210.908066,392.390381 209.078461,397.078918 
z"/>
</svg>